<?xml version="1.0" encoding="UTF-8" standalone="no"?>
<!DOCTYPE svg PUBLIC "-//W3C//DTD SVG 1.0//EN" "http://www.w3.org/TR/2001/PR-SVG-20010719/DTD/svg10.dtd">
<svg width="21cm" height="15cm" viewBox="19 19 410 292" xmlns="http://www.w3.org/2000/svg" xmlns:xlink="http://www.w3.org/1999/xlink">
  <g id="Background">
    <g>
      <rect style="fill: #ffffff; fill-opacity: 1; stroke-opacity: 1; stroke-width: 2; stroke: #000000" x="20" y="30" width="60" height="40" rx="0" ry="0"/>
      <text font-size="12.7998" style="fill: #000000; fill-opacity: 1; stroke: none;text-anchor:middle;font-family:sans-serif;font-style:normal;font-weight:normal" x="50" y="53.8811">
        <tspan x="50" y="53.8811">Client</tspan>
      </text>
    </g>
    <g>
      <rect style="fill: #ffffff; fill-opacity: 1; stroke-opacity: 1; stroke-width: 2; stroke: #000000" x="200" y="20" width="120" height="60" rx="0" ry="0"/>
      <text font-size="12.7998" style="fill: #000000; fill-opacity: 1; stroke: none;text-anchor:middle;font-family:sans-serif;font-style:normal;font-weight:normal" x="260" y="45.8811">
        <tspan x="260" y="45.8811">Authorization</tspan>
        <tspan x="260" y="61.8811">Server</tspan>
      </text>
    </g>
    <g>
      <rect style="fill: #ffffff; fill-opacity: 1; stroke-opacity: 1; stroke-width: 2; stroke: #000000" x="100" y="250" width="80.65" height="60" rx="0" ry="0"/>
      <text font-size="12.7998" style="fill: #000000; fill-opacity: 1; stroke: none;text-anchor:middle;font-family:sans-serif;font-style:normal;font-weight:normal" x="140.325" y="275.881">
        <tspan x="140.325" y="275.881">Resource</tspan>
        <tspan x="140.325" y="291.881">Server</tspan>
      </text>
    </g>
    <g>
      <path style="fill: #ffffff; fill-opacity: 1; stroke-opacity: 1; stroke-width: 2; stroke: #000000" fill-rule="evenodd" d="M 232.026 146.817 C 223.846,146.597 207.982,151.217 210.213,161.116 C 212.444,171.016 223.102,173.215 227.564,170.356 C 232.026,167.496 220.624,184.215 242.437,188.614 C 264.249,193.014 275.404,185.974 272.181,180.915 C 268.959,175.855 291.268,192.794 301.679,183.115 C 312.089,173.435 291.02,164.196 295.482,165.516 C 299.944,166.836 313.577,165.076 309.115,148.577 C 304.653,132.078 264.497,144.837 268.959,142.417 C 273.421,139.998 262.266,127.898 248.386,130.318 C 234.505,132.738 233.52,137.129 232.033,146.809 L 232.026,146.817z"/>
      <text font-size="12.7998" style="fill: #000000; fill-opacity: 1; stroke: none;text-anchor:middle;font-family:sans-serif;font-style:normal;font-weight:normal" x="263.61" y="165.485">
        <tspan x="263.61" y="165.485">Cache?</tspan>
      </text>
    </g>
    <g>
      <rect style="fill: #ffffff; fill-opacity: 1; stroke-opacity: 1; stroke-width: 2; stroke: #000000" x="220" y="250" width="80.65" height="60" rx="0" ry="0"/>
      <text font-size="12.7998" style="fill: #000000; fill-opacity: 1; stroke: none;text-anchor:middle;font-family:sans-serif;font-style:normal;font-weight:normal" x="260.325" y="275.881">
        <tspan x="260.325" y="275.881">Resource</tspan>
        <tspan x="260.325" y="291.881">Server</tspan>
      </text>
    </g>
    <g>
      <rect style="fill: #ffffff; fill-opacity: 1; stroke-opacity: 1; stroke-width: 2; stroke: #000000" x="330" y="250" width="80.65" height="60" rx="0" ry="0"/>
      <text font-size="12.7998" style="fill: #000000; fill-opacity: 1; stroke: none;text-anchor:middle;font-family:sans-serif;font-style:normal;font-weight:normal" x="370.325" y="275.881">
        <tspan x="370.325" y="275.881">Resource</tspan>
        <tspan x="370.325" y="291.881">Server</tspan>
      </text>
    </g>
    <g>
      <line style="fill: none; stroke-opacity: 1; stroke-width: 2; stroke: #000000" x1="80" y1="50" x2="190.264" y2="50"/>
      <polygon style="fill: #000000; fill-opacity: 1; stroke-opacity: 1; stroke-width: 2; stroke: #000000" fill-rule="evenodd" points="197.764,50 187.764,55 190.264,50 187.764,45 "/>
    </g>
    <g>
      <line style="fill: none; stroke-opacity: 1; stroke-width: 2; stroke: #000000" x1="260" y1="80" x2="260.438" y2="120.93"/>
      <polygon style="fill: #000000; fill-opacity: 1; stroke-opacity: 1; stroke-width: 2; stroke: #000000" fill-rule="evenodd" points="260.518,128.429 255.412,118.483 260.438,120.93 265.411,118.376 "/>
    </g>
    <g>
      <line style="fill: none; stroke-opacity: 1; stroke-width: 2; stroke: #000000" x1="260.678" y1="190.598" x2="260.383" y2="240.264"/>
      <polygon style="fill: #000000; fill-opacity: 1; stroke-opacity: 1; stroke-width: 2; stroke: #000000" fill-rule="evenodd" points="260.338,247.764 255.398,237.734 260.383,240.264 265.398,237.794 "/>
    </g>
    <g>
      <polyline style="fill: none; stroke-opacity: 1; stroke-width: 2; stroke: #000000" points="260.859,190.611 260.859,220.306 140.325,220.306 140.325,240.264 "/>
      <polygon style="fill: #000000; fill-opacity: 1; stroke-opacity: 1; stroke-width: 2; stroke: #000000" fill-rule="evenodd" points="140.325,247.764 135.325,237.764 140.325,240.264 145.325,237.764 "/>
    </g>
    <g>
      <polyline style="fill: none; stroke-opacity: 1; stroke-width: 2; stroke: #000000" points="260.859,190.611 260.859,220.306 370.325,220.306 370.325,240.264 "/>
      <polygon style="fill: #000000; fill-opacity: 1; stroke-opacity: 1; stroke-width: 2; stroke: #000000" fill-rule="evenodd" points="370.325,247.764 365.325,237.764 370.325,240.264 375.325,237.764 "/>
    </g>
    <text font-size="12.7998" style="fill: #0000ff; fill-opacity: 1; stroke: none;text-anchor:start;font-family:sans-serif;font-style:normal;font-weight:normal" x="100" y="70">
      <tspan x="100" y="70">Revocation</tspan>
      <tspan x="100" y="86">Request</tspan>
    </text>
    <text font-size="12.7998" style="fill: #0000ff; fill-opacity: 1; stroke: none;text-anchor:start;font-family:sans-serif;font-style:normal;font-weight:normal" x="320" y="130">
      <tspan x="320" y="130">Revocation Data</tspan>
      <tspan x="320" y="146">Propagates to all</tspan>
      <tspan x="320" y="162">Microservices</tspan>
    </text>
  </g>
</svg>
